<svg width="85" height="85" viewBox="0 0 85 85" fill="none" xmlns="http://www.w3.org/2000/svg">
<g filter="url(#filter0_f_201_3591)">
<circle cx="42.5" cy="42.5" r="17.5" fill="#25B4F8"/>
</g>
<circle cx="43" cy="43" r="25" fill="#25B4F8"/>
<path d="M53.3353 35.3491C51.9049 33.1099 49.7599 32.5377 48.0529 32.4967C46.3524 32.4559 44.6769 32.0069 43.1837 31.1921C41.685 30.374 39.5412 29.7971 37.1828 31.021C32.7142 33.3402 34.0322 39.9751 34.631 41.2175C35.2299 42.46 34.8972 43.8135 34.7778 46.727C34.6584 49.6406 34.7447 52.4588 36.4203 52.4871C38.0959 52.5153 39.0275 50.7211 40.1038 48.2744C40.1779 48.1061 40.2501 47.949 40.3206 47.8021C40.8045 46.7946 42.312 47.1985 42.2273 48.313C42.2149 48.4754 42.199 48.6477 42.179 48.8304C41.8878 51.4876 41.7975 53.5071 43.2627 54.3205C44.7279 55.1338 46.2118 52.7363 47.5652 50.1534C48.9185 47.5705 49.3072 46.232 50.447 45.4554C51.5869 44.6788 56.0457 39.5919 53.3353 35.3491ZM42.0301 33.6861C41.9003 33.9968 41.5435 34.144 41.2326 34.0157C41.121 33.9705 38.6368 33.0019 37.1687 35.6039C37.0287 35.852 36.7414 35.9647 36.4784 35.8943C36.4296 35.8812 36.3818 35.8619 36.3358 35.8359C36.0418 35.6701 35.9379 35.2972 36.1038 35.0031C37.7124 32.1519 40.4686 32.3721 41.7014 32.8864C42.013 33.0164 42.1601 33.3744 42.0301 33.6861Z" fill="white"/>
<defs>
<filter id="filter0_f_201_3591" x="0" y="0" width="85" height="85" filterUnits="userSpaceOnUse" color-interpolation-filters="sRGB">
<feFlood flood-opacity="0" result="BackgroundImageFix"/>
<feBlend mode="normal" in="SourceGraphic" in2="BackgroundImageFix" result="shape"/>
<feGaussianBlur stdDeviation="12.5" result="effect1_foregroundBlur_201_3591"/>
</filter>
</defs>
</svg>
