<svg width="113" height="35" viewBox="0 0 113 35" fill="none" xmlns="http://www.w3.org/2000/svg">
<path d="M23.3745 11.0547C23.1429 10.8312 22.8178 10.7297 22.4997 10.7816C22.1811 10.8333 21.9058 11.032 21.758 11.317C21.2496 12.2975 20.6038 13.1985 19.844 13.9951C19.9198 13.4197 19.9579 12.8408 19.9579 12.2605C19.9579 11.1468 19.8076 10.0008 19.5109 8.85382C18.5355 5.08652 15.9778 1.90058 12.4938 0.112937C12.1905 -0.0426481 11.829 -0.0371857 11.5306 0.127504C11.2322 0.29226 11.0367 0.594326 11.01 0.932203C10.7383 4.35574 8.96202 7.47041 6.13371 9.47961C6.09628 9.50637 6.05912 9.53348 6.02196 9.56047C5.94498 9.61636 5.87242 9.66923 5.80464 9.71362C5.79402 9.72065 5.7835 9.7278 5.77318 9.73514C3.99439 10.9994 2.52669 12.6848 1.5285 14.6094C0.514258 16.5672 0 18.668 0 20.8534C0 21.9667 0.150336 23.1128 0.446865 24.2599C2.01173 30.3064 7.49294 34.5294 13.7762 34.5294C21.372 34.5294 27.5515 28.3944 27.5515 20.8534C27.5515 17.1348 26.0681 13.6548 23.3745 11.0547Z" fill="#011632"/>
<path d="M13.2487 25.113C15.5772 25.113 17.4648 23.2391 17.4648 20.9276C17.4648 18.616 15.5772 16.7422 13.2487 16.7422C10.9203 16.7422 9.03271 18.616 9.03271 20.9276C9.03271 23.2391 10.9203 25.113 13.2487 25.113Z" fill="#F8F8F8"/>
<path d="M107.907 15.0478V12.4723H107.103V11.9023H109.357V12.4723H108.566V15.0478H107.907ZM109.683 15.0478V11.9023H110.321L111.508 13.4645H111.21L112.363 11.9023H113V15.0478H112.341V12.6243L112.605 12.6834L111.385 14.2456H111.299L110.121 12.6834L110.342 12.6243V15.0478H109.683Z" fill="#011632"/>
<path d="M44.1231 28.6151C45.1848 28.6151 46.1237 28.4226 46.9405 28.0375C47.7569 27.6322 48.3796 27.0242 48.8082 26.2136V28.2503H53.0956V11.6523H48.5021V21.3497C48.5021 22.3022 48.2163 23.0723 47.6448 23.66C47.073 24.2275 46.3382 24.5112 45.4401 24.5112C44.5417 24.5112 43.8069 24.2275 43.235 23.66C42.6635 23.0723 42.3778 22.3022 42.3778 21.3497V11.6523H37.7847V21.7145C37.7847 23.7816 38.3254 25.4536 39.4075 26.7303C40.51 27.9869 42.0816 28.6151 44.1231 28.6151Z" fill="#011632"/>
<path d="M56.4526 10.1614H61.0458V5.60156H56.4526V10.1614ZM56.4526 28.2489H61.0458V11.651H56.4526V28.2489Z" fill="#011632"/>
<path d="M66.4282 28.2505H71.0214V15.6044H74.604V11.6525H71.0214V11.4093C71.0214 9.92988 71.889 9.19016 73.6243 9.19016C73.91 9.19016 74.247 9.22059 74.6348 9.28137V5.39029C74.1653 5.28894 73.6243 5.23828 73.0116 5.23828C70.9293 5.23828 69.3065 5.77534 68.1427 6.84942C66.9997 7.92355 66.4282 9.44351 66.4282 11.4093V11.6525H63.6108V15.6044H66.4282V28.2505Z" fill="#011632"/>
<path d="M76.9668 28.2491H81.5603V19.3118C81.5603 18.0755 81.9073 17.123 82.6012 16.4542C83.2956 15.7652 84.204 15.4207 85.3266 15.4207H86.7657V11.4688H85.786C84.7651 11.4688 83.8567 11.6613 83.0607 12.0463C82.2851 12.4111 81.6828 13.1103 81.2541 14.1439V11.6511H76.9668V28.2491Z" fill="#011632"/>
<path d="M91.3817 34.9989C94.4437 34.9989 96.6588 33.2662 98.0267 29.8007L105.192 11.6523H100.262L96.3118 22.3224L92.3614 11.6523H87.4313L94.015 28.2503L93.7089 28.9495C93.464 29.4967 93.1474 29.9831 92.7596 30.4086C92.3718 30.8342 91.7287 31.047 90.8303 31.047C90.0955 31.047 89.4015 30.9457 88.748 30.743V34.4821C89.0954 34.6645 89.4932 34.7963 89.9426 34.8773C90.412 34.9584 90.8919 34.9989 91.3817 34.9989Z" fill="#011632"/>
</svg>
